<svg xmlns="http://www.w3.org/2000/svg" viewBox="0 0 50 50">
  <g>
    <path d="M25.00781 33.09375v-2.14063l1.21875-.0078 1.19922-.02344 1.1836-.04688 1.16406-.0625 1.14453-.07422 1.11719-.09375 1.09765-.10937 1.07032-.125 1.04296-.13672 1.01563-.15235.98047-.16796.95312-.17579.92188-.1914.8789-.20313.84766-.21484.80469-.22656.76562-.23438.72657-.2461.67968-.25.6289-.26171.58595-.26953.53515-.26953.48047-.27735.42578-.27734.3711-.27344.3125-.26953.2539-.25781.1914-.25.14063-.22657.08985-.20312.04687-.1875.01563-.17969h2.1211l-.04688.54688-.13672.52343-.21485.4961-.28515.46484-.33985.4336-.39062.40625-.4414.3789-.48829.36328-.53125.34766-.57812.32813-.6172.3164-.66015.30078-.70312.28907-.7461.28124-.78125.26172-.8203.25-.85548.2422-.89062.22655-.92969.21094-.96094.19922-.98828.1875-1.02344.17188-1.05078.15624-1.07812.14454-1.10547.1289-1.1289.10938-1.15235.09765-1.17578.07813-1.19532.0625-1.21484.04687-1.23047.02735ZM0 25.00781h2.11719l.01562.17969.05078.1875.08985.20313.13672.22656.1953.25.25392.25781.30859.26953.3711.27344.42577.27734.48438.27735.53515.26953.58204.26953.6328.26172.6797.25.72265.2461.76563.23437.8086.22656.84374.21484.88281.20313.91797.1914.95313.17579.98437.16796 1.01563.15235 1.04297.13672 1.0703.125 1.09376.10937 1.1211.09375 1.14452.07422 1.16407.0625 1.18359.04688 1.19922.02343 1.21484.00782v2.14062l-1.2461-.00781-1.23046-.02735-1.21484-.04687-1.19532-.0625-1.17578-.07813-1.15234-.09765-1.1289-.10938-1.10548-.1289-1.07812-.14453-1.05078-.15626-1.02344-.17187-.99219-.1875-.95703-.19922-.92969-.21094-.89062-.22656-.85547-.24219-.82031-.25-.78516-.26562-.74219-.27735-.70312-.28906-.66016-.30078-.6211-.3164-.57421-.32813-.53125-.34766-.48828-.36328-.4414-.38281-.39454-.40234-.33984-.4336-.28125-.46484-.21485-.4961-.13672-.52343Zm25.00781-8.08593v2.14062l-1.21484.00781-1.19922.02735-1.1836.04687-1.16406.0586-1.14453.07812-1.1211.09375-1.09374.10938-1.07031.12109-1.04297.14062-1.01563.15235-.98437.16406-.95313.17969-.91797.1914-.8828.20313-.84376.21484-.8086.22657-.76562.23437-.72265.24219-.6797.2539-.6328.26172-.58204.26563-.53515.27343-.48438.27344-.42578.27735-.3711.27343-.30858.26954-.25391.26171-.19531.2461-.13672.22656-.08985.20703-.05078.1875-.01562.17578H0l.04688-.54297.13671-.52734.21485-.4961.28125-.46093.33984-.4336.39453-.40624.4414-.38282.48829-.36328.53125-.34375.57422-.32812.6211-.31641.66015-.30469.70312-.28906.7422-.27344.78515-.26562.82031-.2539.85547-.23829.89062-.22656.9297-.21485.95702-.19921.99219-.1836 1.02344-.17187 1.05078-.16016 1.07812-.14063 1.10547-.1289 1.1289-.11328 1.15235-.09375 1.17578-.08203 1.19532-.0625 1.21484-.04297 1.23047-.02735Zm25.01172 8.08593h-2.1211l-.01171-.17578-.05078-.1875-.08985-.20703-.14062-.22656-.1914-.2461-.25391-.26171-.3125-.26954-.3672-.27343-.42968-.27735-.48047-.27343-.53515-.27344-.58594-.26563-.63281-.26172-.67578-.2539-.72657-.24219-.76562-.23438-.80469-.22656-.84766-.21484-.8789-.20313-.92188-.1914-.95312-.17969-.98047-.16406-1.01563-.15235-1.04297-.14062-1.0703-.1211-1.09766-.10937-1.1172-.09375-1.14452-.07813-1.16407-.05859-1.18359-.04687-1.19922-.02735-1.21875-.00781v-2.14063l1.25.01172 1.23047.02735 1.21485.04297 1.1953.0625 1.17579.08203 1.15234.09375 1.1289.11328 1.10548.1289 1.07812.14063 1.05078.16016 1.02344.17187.99219.1836.95703.19921.92969.21485.89062.22656.85547.23828.82031.2539.78125.26563.7461.27344.70312.29297.66016.30078.61719.3164.57812.32813.53125.34375.48828.36328.4414.38282.39454.40624.33594.4336.28515.46094.21485.49609.13672.52734Zm0 0"/>
    <path d="M33.09375 25.00781h-2.14063l-.0078-1.21484-.02344-1.19922-.04688-1.1836-.0625-1.16406-.07422-1.14453-.09375-1.1211-.10937-1.09374-.125-1.07031-.13672-1.04297-.15235-1.01563-.16796-.98437-.17579-.95313-.1914-.91797-.20313-.8828-.21484-.84376-.22656-.8086-.23438-.76562-.2461-.72265-.25-.6797-.26171-.6328-.26563-.58204-.27343-.53515-.27735-.48438-.27734-.42578-.27344-.3711-.26953-.30858-.25781-.25391-.25-.19531-.22657-.13672-.20312-.08985-.1875-.05078-.17969-.01562V0l.54688.04688.52343.13671.4961.21485.46484.28125.4336.33984.40234.39453.38281.4414.36328.48829.34766.53125.32813.57422.3164.6211.30078.66015.28907.70312.27734.7422.26562.78515.25.82031.2422.85547.22655.89062.21094.9297.19922.95702.1875.99219.17188 1.02344.15624 1.05078.14454 1.07812.1289 1.10547.10938 1.1289.09765 1.15235.07813 1.17578.0625 1.19532.04687 1.21093.02735 1.23438Zm-8.08594 25.01172v-2.1211l.17969-.01171.1875-.05078.20313-.08985.22656-.14062.25-.1914.25781-.25391.26953-.3125.27344-.3672.27734-.42968.27735-.48047.27343-.53515.26563-.58594.26172-.6289.25-.6797.2461-.72656.23437-.76562.22656-.80469.21484-.84766.20313-.8789.1914-.92188.17579-.95312.16796-.98047.15235-1.01563.13672-1.04297.125-1.0703.10937-1.09766.09375-1.1172.07422-1.14452.0625-1.16407.04688-1.18359.02343-1.19922.00782-1.21875h2.14062l-.00781 1.25-.02735 1.23047-.04687 1.21485-.0625 1.1953-.07813 1.17579-.09765 1.15234-.10938 1.1289-.1289 1.10548-.14453 1.07812-.15626 1.05078-.17187 1.02344-.1875.99219-.19922.95703-.21094.92969-.22656.89062-.24219.85547-.25.82031-.26562.78125-.27735.7461-.28906.70312-.30078.66016-.3164.61719-.32813.57812-.34766.53125-.36328.48828-.38281.4414L27.47266 49l-.4336.33594-.46484.28515-.4961.21485-.52343.13672Zm-8.08593-25.01172h2.14062l.00781 1.21875.02735 1.19922.04687 1.1836.0586 1.16406.07812 1.14453.09375 1.11719.10938 1.09765.12109 1.07032.14062 1.04296.15235 1.01563.16406.98047.17969.95312.1914.92188.20313.8789.21484.84766.22657.80469.23437.76562.24219.72657.2539.67578.26172.6328.26563.58595.27343.53515.27344.48047.27735.42969.27343.36719.26954.3125.26171.2539.2461.1914.22656.14063.20703.08985.1875.04687.17578.01563v2.1211l-.54297-.04688-.52734-.13672-.4961-.21485-.46093-.28515-.4336-.33985-.40624-.39062-.38282-.4414-.36328-.48829-.34375-.53125-.32812-.57812-.31641-.6172-.30469-.66015-.28906-.70312-.27344-.7461-.26562-.78125-.2539-.8203-.23829-.85548-.22656-.89062-.21485-.92969-.19921-.96094-.1836-.98828-.17187-1.02344-.16016-1.05078-.14063-1.07812-.1289-1.10547-.11328-1.1289-.09375-1.15235-.08203-1.17578-.0625-1.19532-.04297-1.21484-.02735-1.23047ZM25.0078 0v2.11719l-.17578.01562-.1875.05078-.20703.08985-.22656.13672-.2461.1953-.26171.25392-.26954.30859-.27343.3711-.27735.42577-.27343.48438-.27344.53515-.26563.58204-.26172.6328-.2539.6797-.24219.72265-.23438.76563-.22656.8086-.21484.84374-.20313.88281-.1914.91797-.17969.95313-.16406.98437-.15235 1.01563-.14062 1.04297-.1211 1.0703-.10937 1.09376-.09375 1.1211-.07813 1.14452-.05859 1.16407-.04687 1.18359-.02735 1.19922-.00781 1.21484h-2.14063l.01172-1.2461.02735-1.23437.04297-1.21093.0625-1.19532.08203-1.17578.09375-1.15234.11328-1.1289.1289-1.10548.14063-1.07812.16016-1.05078.17187-1.02344.1836-.99219.19921-.95703.21485-.92969.22656-.89062.23828-.85547.2539-.82031.26563-.78516.27344-.74219.28906-.70312.30469-.66016.3164-.6211.32813-.57421.34375-.53125.36328-.48828.38282-.4414.40624-.39454.4336-.33984.46094-.28125.49609-.21485.52734-.13672Zm0 0"/>
  </g>
</svg>