<svg xmlns="http://www.w3.org/2000/svg" viewBox="0 0 49 30">
  <g>
    <path d="M48.97656 13.07813h-18.0664v-2.5h18.0664ZM.59766 27.48047h30.92187v2.5H.59766Zm0 0"/>
    <path d="M32.41406 13.29688v8.8203h-2.94531v-8.8203ZM19.42578 2.49609V0l.6836.01953.67578.05078.66406.08985.65234.125.64063.15625.6289.1875.61329.21875.59765.24609.58203.27734.5625.30079.54297.33203.52735.35156.5078.3789.48829.39844.46484.42578.44532.44532.42578.46484.39843.48438.37891.5.35156.51953.32813.53906.3086.55078.27734.5664.2539.58594.22266.59375.19922.60938.17187.6211.14063.6328.10937.64454.07813.65234.05078.66016.01562.66797h-2.94531l-.01172-.5625-.04297-.5586-.0664-.55078-.09375-.54297-.1172-.53125-.14062-.51953-.16406-.50781-.1914-.4961-.21094-.48437-.23047-.47266-.25-.45312-.27344-.44531-.28906-.42188-.3086-.41016-.3203-.39453-.34376-.3711-.35547-.35546-.36718-.33594-.38672-.3164-.39453-.29297L24.5 3.99609l-.41797-.25-.42969-.23437-.4375-.20703-.44921-.1836-.45313-.16406-.46484-.13672-.46875-.11719-.47657-.08984-.48437-.0625-.49219-.04297ZM13.00781 0h6.41797v2.4961h-6.41797ZM2.96875 13.29688H.02344l.01562-.66797.04688-.66016.08203-.65234.10937-.64453.14063-.63282.16797-.6211.19922-.60937.22656-.59375.2539-.58593.27735-.56641.30469-.55078.32812-.53906.35547-.51954.3789-.5.39844-.48828.42578-.46093.44532-.44532.46484-.42578.48828-.39844.50781-.3789.52344-.35156.54688-.33203.5625-.30079.58203-.27734.59765-.2461.61329-.21874.625-.1875.64453-.15625.65234-.1211.66406-.09375.67578-.05078L13.00783 0v2.4961l-.4961.01171-.49219.03906-.48437.06641-.47657.08984-.46875.11329-.46484.14062-.45703.16016-.44531.1875-.4375.20703-.4297.23047-.41796.2539-.41016.27344-.39453.29688-.38672.3164-.36718.33594-.35547.35547-.34375.3711-.32422.39452-.30469.41016-.29297.42188-.26953.4414-.25.45703-.23437.47266-.20704.48437-.1875.4961-.16796.50781-.14063.51953-.11719.53125-.09375.54297-.0664.55078-.04297.55469Zm-2.94531 8.8203v-8.8203h2.94531v8.8203l-1.47266 1.25Zm1.47265 1.25H.02344v-1.25Zm29.44532 0H1.49609v-2.5h29.44532l1.47265 1.25Zm1.47265-1.25v1.25h-1.47265Zm0 0"/>
  </g>
</svg>