
<svg xmlns="http://www.w3.org/2000/svg" viewBox="0 0 50 50">
  <path d="M25 10.13281c3.97266 0 7.70703 1.54688 10.51563 4.35157C38.3203 17.29296 39.86718 21.02734 39.86718 25c0 3.97266-1.54688 7.70703-4.35157 10.51563C32.70703 38.3203 28.97266 39.86718 25 39.86718c-3.97266 0-7.70703-1.54688-10.51563-4.35157C11.6797 32.70703 10.13282 28.97266 10.13282 25c0-3.97266 1.54688-7.70703 4.35157-10.51563C17.29296 11.6797 21.02734 10.13282 25 10.13282m0-3.64453C14.77734 6.48828 6.48828 14.77734 6.48828 25c0 10.22266 8.28906 18.51172 18.51172 18.51172 10.22266 0 18.51172-8.28906 18.51172-18.51172 0-10.22266-8.28906-18.51172-18.51172-18.51172Zm0 0"/>
  <path d="M19.67969 25c0 1.41016-1.14063 2.55078-2.55078 2.55078-1.41016 0-2.55079-1.14062-2.55079-2.55078s1.14063-2.55078 2.55079-2.55078c1.41015 0 2.55078 1.14062 2.55078 2.55078Zm2.30469 5.5664c0 1.41016-1.14063 2.55079-2.55079 2.55079-1.41015 0-2.55078-1.14063-2.55078-2.55078 0-1.41016 1.14063-2.55079 2.55078-2.55079 1.41016 0 2.55079 1.14063 2.55079 2.55079Zm5.5664 2.3047c0 1.41015-1.14062 2.55078-2.55078 2.55078s-2.55078-1.14063-2.55078-2.55079c0-1.40625 1.14062-2.55078 2.55078-2.55078s2.55078 1.14453 2.55078 2.55078Zm5.56641-2.3047c0 1.41016-1.14063 2.55079-2.55078 2.55079-1.41016 0-2.55079-1.14063-2.55079-2.55078 0-1.41016 1.14063-2.55079 2.55079-2.55079 1.41015 0 2.55078 1.14063 2.55078 2.55079ZM35.42188 25c0 1.41016-1.14063 2.55078-2.55079 2.55078-1.41015 0-2.55078-1.14062-2.55078-2.55078s1.14063-2.55078 2.55078-2.55078c1.41016 0 2.55078 1.14062 2.55078 2.55078Zm-2.30469-5.5664c0 1.41015-1.14063 2.55078-2.55078 2.55078-1.41016 0-2.55079-1.14063-2.55079-2.55079 0-1.41015 1.14063-2.55078 2.55079-2.55078 1.41015 0 2.55078 1.14063 2.55078 2.55078Zm-5.56641-2.3047c0 1.41016-1.14062 2.55079-2.55078 2.55079s-2.55078-1.14063-2.55078-2.55078c0-1.41016 1.14062-2.55079 2.55078-2.55079s2.55078 1.14063 2.55078 2.55079Zm-5.5664 2.3047c0 1.41015-1.14063 2.55078-2.55079 2.55078-1.41015 0-2.55078-1.14063-2.55078-2.55079 0-1.41015 1.14063-2.55078 2.55078-2.55078 1.41016 0 2.55079 1.14063 2.55079 2.55078Zm5.5664 28.01562C27.55078 48.85938 26.41016 50 25 50s-2.55078-1.14063-2.55078-2.55078c0-1.41016 1.14062-2.55078 2.55078-2.55078s2.55078 1.14062 2.55078 2.55078Zm-15.875-6.57422c0 1.40625-1.14062 2.55078-2.55078 2.55078-1.40625 0-2.55078-1.14453-2.55078-2.55078 0-1.41016 1.14453-2.55078 2.55078-2.55078 1.41016 0 2.55078 1.14062 2.55078 2.55078ZM5.10156 25c0 1.41016-1.14062 2.55078-2.55078 2.55078S0 26.41016 0 25s1.14063-2.55078 2.55078-2.55078c1.41016 0 2.55078 1.14062 2.55078 2.55078Zm6.57422-15.875c0 1.41016-1.14062 2.55078-2.55078 2.55078-1.40625 0-2.55078-1.14062-2.55078-2.55078 0-1.40625 1.14453-2.55078 2.55078-2.55078 1.41016 0 2.55078 1.14453 2.55078 2.55078ZM25 5.10156c-1.41016 0-2.55078-1.14062-2.55078-2.55078S23.58984 0 25 0s2.55078 1.14063 2.55078 2.55078c0 1.41016-1.14062 2.55078-2.55078 2.55078ZM43.42578 9.125c0 1.41016-1.14453 2.55078-2.55078 2.55078-1.41016 0-2.55078-1.14062-2.55078-2.55078 0-1.40625 1.14062-2.55078 2.55078-2.55078 1.40625 0 2.55078 1.14453 2.55078 2.55078ZM50 25c0 1.41016-1.14063 2.55078-2.55078 2.55078-1.41016 0-2.55078-1.14062-2.55078-2.55078s1.14062-2.55078 2.55078-2.55078S50 23.58984 50 25Zm-6.57422 15.875c0 1.40625-1.14453 2.55078-2.55078 2.55078-1.41016 0-2.55078-1.14453-2.55078-2.55078 0-1.41016 1.14062-2.55078 2.55078-2.55078 1.40625 0 2.55078 1.14062 2.55078 2.55078Zm0 0"/>
</svg>