<svg xmlns="http://www.w3.org/2000/svg" viewBox="0 0 50 50">
  <path d="M25 4.58594c5.45313 0 10.57813 2.125 14.4336 5.98047C43.28905 14.42188 45.41405 19.54688 45.41405 25c0 5.45313-2.125 10.57813-5.98047 14.4336C35.57812 43.28905 30.45312 45.41405 25 45.41405c-5.45313 0-10.57813-2.125-14.4336-5.98047C6.71095 35.57812 4.58595 30.45312 4.58595 25c0-5.45313 2.125-10.57813 5.98047-14.4336C14.42188 6.71095 19.54688 4.58595 25 4.58595M25 0C11.1914 0 0 11.1914 0 25s11.1914 25 25 25 25-11.1914 25-25S38.8086 0 25 0Zm0 0"/>
  <path d="M18.89453 14.67969c0 1.77343-1.4375 3.21093-3.21094 3.21093-1.77343 0-3.21093-1.4375-3.21093-3.21093 0-1.77344 1.4375-3.21094 3.21093-3.21094 1.77344 0 3.21094 1.4375 3.21094 3.21094Zm0 10.32031c0 1.77344-1.4375 3.21094-3.21094 3.21094-1.77343 0-3.21093-1.4375-3.21093-3.21094s1.4375-3.21094 3.21093-3.21094c1.77344 0 3.21094 1.4375 3.21094 3.21094Zm0 10.32031c0 1.77344-1.4375 3.21094-3.21094 3.21094-1.77343 0-3.21093-1.4375-3.21093-3.21094 0-1.77343 1.4375-3.21093 3.21093-3.21093 1.77344 0 3.21094 1.4375 3.21094 3.21093Zm18.46094-20.64062c0 1.77343-1.4375 3.21093-3.21094 3.21093s-3.21094-1.4375-3.21094-3.21093c0-1.77344 1.4375-3.21094 3.21094-3.21094s3.21094 1.4375 3.21094 3.21094Zm0 10.32031c0 1.77344-1.4375 3.21094-3.21094 3.21094S30.9336 26.77344 30.9336 25s1.4375-3.21094 3.21094-3.21094S37.35547 23.22656 37.35547 25Zm0 10.32031c0 1.77344-1.4375 3.21094-3.21094 3.21094s-3.21094-1.4375-3.21094-3.21094c0-1.77343 1.4375-3.21093 3.21094-3.21093s3.21094 1.4375 3.21094 3.21093ZM28.125 37.95703c0 1.77344-1.4375 3.21094-3.21094 3.21094-1.77343 0-3.21093-1.4375-3.21093-3.21094s1.4375-3.21094 3.21093-3.21094c1.77344 0 3.21094 1.4375 3.21094 3.21094Zm0-8.48437c0 1.77343-1.4375 3.21093-3.21094 3.21093-1.77343 0-3.21093-1.4375-3.21093-3.21093 0-1.77344 1.4375-3.21094 3.21093-3.21094 1.77344 0 3.21094 1.4375 3.21094 3.21094Zm0-8.48828c0 1.77343-1.4375 3.21093-3.21094 3.21093-1.77343 0-3.21093-1.4375-3.21093-3.21093 0-1.77344 1.4375-3.21094 3.21093-3.21094 1.77344 0 3.21094 1.4375 3.21094 3.21093Zm0-8.48438c0 1.77344-1.4375 3.21094-3.21094 3.21094-1.77343 0-3.21093-1.4375-3.21093-3.21094s1.4375-3.21094 3.21093-3.21094c1.77344 0 3.21094 1.4375 3.21094 3.21094Zm0 0"/>
</svg>