<svg xmlns="http://www.w3.org/2000/svg" viewBox="0 0 50 50">
  <path d="M25 5.50781c5.20703 0 10.10156 2.02735 13.78516 5.70703 3.67968 3.6836 5.70703 8.57813 5.70703 13.78516s-2.02735 10.10156-5.70703 13.78516C35.10156 42.46484 30.20703 44.49219 25 44.49219s-10.10156-2.02735-13.78516-5.70703C7.53516 35.10156 5.50781 30.20703 5.50781 25s2.02735-10.10156 5.70703-13.78516C14.89844 7.53516 19.79297 5.50781 25 5.50781M25 0C11.1914 0 0 11.1914 0 25s11.1914 25 25 25 25-11.1914 25-25S38.8086 0 25 0Zm0 0"/>
  <path d="M33.33203 25c0 4.6211-3.7461 8.3711-8.36719 8.3711-4.625 0-8.37109-3.75-8.37109-8.3711s3.7461-8.3711 8.3711-8.3711c4.62109 0 8.36718 3.75 8.36718 8.3711Zm0 0"/>
  <path d="M22.2461 2.7539h5.5078V25h-5.5078Zm0 0"/>
</svg>